<svg width="16" height="16" viewBox="0 0 16 16" fill="none" xmlns="http://www.w3.org/2000/svg">
<path d="M14.6479 6.66663H4.53628L8.93266 2.28357C9.18352 2.03271 9.32446 1.69246 9.32446 1.33769C9.32446 0.98291 9.18352 0.642664 8.93266 0.391799C8.68179 0.140935 8.34155 0 7.98677 0C7.63199 0 7.29175 0.140935 7.04088 0.391799L0.379705 7.05298C0.258418 7.17968 0.163343 7.32908 0.0999357 7.49261C-0.0333119 7.81696 -0.0333119 8.18076 0.0999357 8.50511C0.163343 8.66865 0.258418 8.81805 0.379705 8.94475L7.04088 15.6059C7.16473 15.7308 7.31208 15.8299 7.47442 15.8975C7.63677 15.9652 7.8109 16 7.98677 16C8.16264 16 8.33677 15.9652 8.49912 15.8975C8.66146 15.8299 8.80881 15.7308 8.93266 15.6059C9.05753 15.4821 9.15664 15.3347 9.22427 15.1724C9.29191 15.01 9.32673 14.8359 9.32673 14.66C9.32673 14.4842 9.29191 14.31 9.22427 14.1477C9.15664 13.9853 9.05753 13.838 8.93266 13.7142L4.53628 9.3311H14.6479C15.0013 9.3311 15.3401 9.19074 15.59 8.9409C15.8398 8.69105 15.9802 8.35219 15.9802 7.99886C15.9802 7.64553 15.8398 7.30667 15.59 7.05683C15.3401 6.80699 15.0013 6.66663 14.6479 6.66663Z" fill="white"/>
</svg>
