<svg width="24" height="24" viewBox="0 0 24 24" fill="none" xmlns="http://www.w3.org/2000/svg">
<path d="M22.7634 0.225464C21.9128 0.0789554 21.0515 0.00354172 20.1884 5.16212e-06C17.2436 -0.00240901 14.3603 0.842004 11.882 2.43259C9.3974 0.862889 6.51449 0.0392004 3.57563 0.0593365C2.71253 0.062873 1.85122 0.138287 1.00065 0.284796C0.722033 0.332829 0.469725 0.47876 0.289159 0.69631C0.108593 0.913859 0.0116343 1.18873 0.0157445 1.47142V15.711C0.0132031 15.8853 0.0491198 16.0581 0.120939 16.217C0.192758 16.3759 0.298715 16.517 0.43127 16.6303C0.563824 16.7436 0.71972 16.8263 0.887863 16.8725C1.05601 16.9187 1.23227 16.9272 1.4041 16.8976C3.10456 16.6032 4.84674 16.652 6.52803 17.0413C8.20932 17.4305 9.79572 18.1523 11.1938 19.164L11.3362 19.2471H11.4667C11.5983 19.3019 11.7395 19.3302 11.882 19.3302C12.0246 19.3302 12.1657 19.3019 12.2973 19.2471H12.4279L12.5703 19.164C13.9586 18.1296 15.5404 17.3845 17.222 16.9728C18.9036 16.561 20.6508 16.4911 22.3599 16.767C22.5318 16.7967 22.708 16.7881 22.8762 16.7419C23.0443 16.6957 23.2002 16.6131 23.3328 16.4998C23.4653 16.3865 23.5713 16.2453 23.6431 16.0864C23.7149 15.9276 23.7508 15.7548 23.7483 15.5804V1.34089C23.7359 1.07053 23.6315 0.812502 23.4524 0.609621C23.2733 0.406739 23.0302 0.271193 22.7634 0.225464ZM10.6954 15.9957C8.49999 14.8408 6.05629 14.238 3.57563 14.2395H2.389V2.37326C2.78421 2.35048 3.18041 2.35048 3.57563 2.37326C6.10716 2.37046 8.58345 3.11335 10.6954 4.50919V15.9957ZM21.375 14.287H20.1884C17.7077 14.2855 15.264 14.8882 13.0686 16.0432V4.50919C15.1806 3.11335 17.6569 2.37046 20.1884 2.37326C20.5836 2.35048 20.9798 2.35048 21.375 2.37326V14.287ZM22.7634 19.2115C21.9128 19.065 21.0515 18.9896 20.1884 18.986C17.2436 18.9836 14.3603 19.828 11.882 21.4186C9.40376 19.828 6.5204 18.9836 3.57563 18.986C2.71253 18.9896 1.85122 19.065 1.00065 19.2115C0.846179 19.236 0.698082 19.2908 0.564871 19.3728C0.43166 19.4547 0.315963 19.5622 0.224433 19.689C0.132903 19.8158 0.0673454 19.9595 0.0315311 20.1117C-0.00428333 20.264 -0.00964834 20.4218 0.0157445 20.5761C0.0760473 20.8843 0.256025 21.156 0.516252 21.3317C0.77648 21.5074 1.09574 21.5728 1.4041 21.5136C3.10456 21.2191 4.84674 21.268 6.52803 21.6572C8.20932 22.0465 9.79572 22.7682 11.1938 23.78C11.3947 23.9231 11.6353 24 11.882 24C12.1287 24 12.3693 23.9231 12.5703 23.78C13.9683 22.7682 15.5547 22.0465 17.236 21.6572C18.9173 21.268 20.6595 21.2191 22.3599 21.5136C22.6683 21.5728 22.9876 21.5074 23.2478 21.3317C23.508 21.156 23.688 20.8843 23.7483 20.5761C23.7737 20.4218 23.7683 20.264 23.7325 20.1117C23.6967 19.9595 23.6311 19.8158 23.5396 19.689C23.4481 19.5622 23.3324 19.4547 23.1992 19.3728C23.066 19.2908 22.9179 19.236 22.7634 19.2115Z" fill="#292D36"/>
</svg>
