<svg width="22" height="24" viewBox="0 0 22 24" fill="none" xmlns="http://www.w3.org/2000/svg">
<path d="M20.3757 7.22008L13.1843 0.915623C12.5251 0.325982 11.6717 0 10.7872 0C9.90275 0 9.04931 0.325982 8.39007 0.915623L1.19868 7.22008C0.817977 7.56056 0.514179 7.97824 0.307512 8.44531C0.100846 8.91237 -0.00394635 9.41811 0.000113617 9.92884V20.4043C0.000113617 21.3579 0.378945 22.2725 1.05327 22.9468C1.72759 23.6212 2.64217 24 3.59581 24H17.9786C18.9322 24 19.8468 23.6212 20.5211 22.9468C21.1955 22.2725 21.5743 21.3579 21.5743 20.4043V9.91685C21.5767 9.40814 21.471 8.90471 21.2644 8.43984C21.0578 7.97496 20.7549 7.55922 20.3757 7.22008V7.22008ZM13.1843 21.6029H8.39007V15.61C8.39007 15.2922 8.51635 14.9873 8.74113 14.7625C8.9659 14.5378 9.27076 14.4115 9.58864 14.4115H11.9858C12.3037 14.4115 12.6085 14.5378 12.8333 14.7625C13.0581 14.9873 13.1843 15.2922 13.1843 15.61V21.6029ZM19.1772 20.4043C19.1772 20.7222 19.0509 21.027 18.8261 21.2518C18.6013 21.4766 18.2965 21.6029 17.9786 21.6029H15.5815V15.61C15.5815 14.6564 15.2026 13.7418 14.5283 13.0675C13.854 12.3932 12.9394 12.0143 11.9858 12.0143H9.58864C8.635 12.0143 7.72042 12.3932 7.0461 13.0675C6.37177 13.7418 5.99294 14.6564 5.99294 15.61V21.6029H3.59581C3.27793 21.6029 2.97307 21.4766 2.7483 21.2518C2.52352 21.027 2.39725 20.7222 2.39725 20.4043V9.91685C2.39746 9.74667 2.43391 9.57849 2.50418 9.4235C2.57444 9.2685 2.67691 9.13025 2.80476 9.01793L9.99615 2.72546C10.2149 2.5333 10.4961 2.42733 10.7872 2.42733C11.0783 2.42733 11.3595 2.5333 11.5783 2.72546L18.7697 9.01793C18.8975 9.13025 19 9.2685 19.0702 9.4235C19.1405 9.57849 19.177 9.74667 19.1772 9.91685V20.4043Z" fill="#292D36"/>
</svg>
