<svg width="55" height="72" viewBox="0 0 55 72" fill="none" xmlns="http://www.w3.org/2000/svg">
<path d="M22.9809 1.17383C14.121 3.51953 8.58365 8.86772 3.6 19.7518C2.12337 23.0357 0.554441 27.6333 0.277571 30.0728C-0.276167 33.9198 -0.0915878 34.4827 1.66192 35.0457C4.5229 35.8902 5.07664 35.2334 7.1993 28.2901C10.8909 15.811 17.2589 8.77389 26.4879 6.89733C32.2098 5.7714 34.2402 3.70719 32.3021 1.36149C30.8255 -0.421241 28.7028 -0.421241 22.9809 1.17383Z" fill="white"/>
<path d="M22.5196 10.0875C11.9985 14.8727 5.63055 31.2926 8.12238 47.0557C10.7988 63.9447 20.7661 73.4213 34.1481 71.8263C43.1925 70.7003 49.3759 65.0707 53.0675 54.6558C55.5593 47.5248 55.2824 32.0432 52.5138 24.8185C50.1142 18.4382 45.4074 12.7147 40.4238 10.0875C35.9016 7.74182 27.5032 7.74182 22.5196 10.0875ZM39.5932 17.5937C41.3467 19.0012 44.1154 22.6604 45.592 25.6629C48.0838 30.7296 48.3607 32.1371 48.3607 40.2063C48.3607 48.0878 48.0838 49.7767 45.7766 54.5619C42.085 62.0682 38.0243 65.0707 31.2871 65.0707C27.0418 65.0707 25.4729 64.6015 22.7042 62.5373C11.9985 54.1866 10.7065 31.1988 20.3969 20.0333C26.1189 13.3715 33.1329 12.4332 39.5932 17.5937Z" fill="white"/>
<path d="M26.1186 17.1246C22.3347 18.8135 18.5508 23.974 16.8896 29.5099C15.5976 33.826 15.0438 47.7125 16.1513 47.7125C16.4282 47.7125 18.6431 46.0236 20.9504 43.8656L25.288 40.0186L25.934 44.4285C27.0415 52.2162 33.0403 55.7817 38.3931 51.9348C42.4539 49.0261 43.1922 40.0186 39.7775 34.7643C38.2086 32.3247 38.2086 32.3247 41.9002 31.105C45.684 29.8852 45.7763 27.3519 42.3616 22.4728C38.024 16.374 32.1174 14.4974 26.1186 17.1246Z" fill="white"/>
<ellipse cx="26.1221" cy="30.622" rx="5.26829" ry="6.47561" fill="#292D36"/>
<ellipse cx="34.0954" cy="42.2542" rx="8.13765" ry="10.3209" transform="rotate(-9.5 34.0954 42.2542)" fill="white"/>
</svg>
