<svg width="17" height="24" viewBox="0 0 17 24" fill="none" xmlns="http://www.w3.org/2000/svg">
<path d="M13.1974 0H3.59929C2.6447 0 1.72921 0.379209 1.05422 1.05421C0.379219 1.7292 9.45763e-06 2.6447 9.45763e-06 3.59928V22.7955C-0.000829856 23.0069 0.0542083 23.2148 0.159551 23.3981C0.264894 23.5814 0.416801 23.7336 0.59989 23.8393C0.782277 23.9446 0.989169 24 1.19977 24C1.41037 24 1.61726 23.9446 1.79965 23.8393L8.39834 20.024L14.997 23.8393C15.1799 23.9429 15.3867 23.9967 15.5969 23.9952C15.8071 23.9967 16.0139 23.9429 16.1968 23.8393C16.3799 23.7336 16.5318 23.5814 16.6371 23.3981C16.7425 23.2148 16.7975 23.0069 16.7967 22.7955V3.59928C16.7967 2.6447 16.4175 1.7292 15.7425 1.05421C15.0675 0.379209 14.152 0 13.1974 0ZM14.3971 20.7199L8.99822 17.6005C8.81583 17.4952 8.60894 17.4398 8.39834 17.4398C8.18774 17.4398 7.98085 17.4952 7.79846 17.6005L2.39953 20.7199V3.59928C2.39953 3.28109 2.52594 2.97592 2.75093 2.75093C2.97593 2.52593 3.2811 2.39952 3.59929 2.39952H13.1974C13.5156 2.39952 13.8207 2.52593 14.0457 2.75093C14.2707 2.97592 14.3971 3.28109 14.3971 3.59928V20.7199Z" fill="#292D36"/>
</svg>
