<svg width="18" height="16" viewBox="0 0 18 16" fill="none" xmlns="http://www.w3.org/2000/svg">
<path d="M17.0008 14.6511L13.8042 11.7067C15.045 10.2699 15.6459 8.44635 15.4833 6.61085C15.3207 4.77535 14.407 3.06745 12.9301 1.83834C11.4531 0.609226 9.52512 -0.0476794 7.5426 0.00269722C5.56008 0.0530739 3.67369 0.806903 2.27131 2.10918C0.868926 3.41146 0.0571534 5.1632 0.00290454 7.00421C-0.0513443 8.84523 0.656054 10.6356 1.97964 12.0071C3.30324 13.3787 5.14241 14.2272 7.119 14.3781C9.09559 14.5291 11.0594 13.9711 12.6065 12.8188L15.7773 15.7633C15.8574 15.8383 15.9527 15.8978 16.0577 15.9385C16.1627 15.9791 16.2753 16 16.3891 16C16.5028 16 16.6154 15.9791 16.7204 15.9385C16.8254 15.8978 16.9207 15.8383 17.0008 15.7633C17.1561 15.6141 17.2429 15.4147 17.2429 15.2072C17.2429 14.9997 17.1561 14.8003 17.0008 14.6511V14.6511ZM7.77272 12.8188C6.57982 12.8188 5.4137 12.4903 4.42183 11.8749C3.42997 11.2595 2.6569 10.3847 2.20039 9.36129C1.74389 8.33786 1.62445 7.2117 1.85717 6.12523C2.0899 5.03875 2.66434 4.04076 3.50785 3.25746C4.35136 2.47416 5.42606 1.94072 6.59605 1.72461C7.76603 1.50849 8.97875 1.61941 10.0809 2.04333C11.183 2.46725 12.1249 3.18514 12.7877 4.10621C13.4504 5.02727 13.8042 6.11015 13.8042 7.21791C13.8042 8.70337 13.1687 10.128 12.0376 11.1784C10.9065 12.2287 9.37236 12.8188 7.77272 12.8188V12.8188Z" fill="white"/>
</svg>
